<svg width="169" height="42" viewBox="0 0 169 42" fill="none" xmlns="http://www.w3.org/2000/svg">
<path d="M69.2195 17V4.63636H73.8558C74.8056 4.63636 75.6025 4.80137 76.2464 5.13139C76.8944 5.46141 77.3834 5.92424 77.7134 6.51989C78.0475 7.11151 78.2145 7.80173 78.2145 8.59055C78.2145 9.3834 78.0455 10.0716 77.7074 10.6552C77.3733 11.2347 76.8803 11.6835 76.2283 12.0014C75.5763 12.3153 74.7755 12.4723 73.8256 12.4723H70.5234V10.6129H73.5238C74.0792 10.6129 74.534 10.5365 74.8881 10.3835C75.2423 10.2266 75.5039 9.99917 75.6729 9.70135C75.846 9.3995 75.9325 9.02924 75.9325 8.59055C75.9325 8.15187 75.846 7.77758 75.6729 7.46768C75.4999 7.15376 75.2363 6.91631 74.8821 6.75533C74.5279 6.59032 74.0711 6.50781 73.5117 6.50781H71.4592V17H69.2195ZM75.6065 11.3977L78.6673 17H76.168L73.1616 11.3977H75.6065ZM80.2761 17V4.63636H88.3173V6.51385H82.5158V9.87038H87.9007V11.7479H82.5158V15.1225H88.3656V17H80.2761ZM92.19 17H89.7994L94.152 4.63636H96.9169L101.276 17H98.8849L95.5827 7.17188H95.4862L92.19 17ZM92.2685 12.1523H98.7884V13.9513H92.2685V12.1523ZM112.906 8.80788H110.648C110.584 8.43762 110.465 8.10961 110.292 7.82386C110.119 7.53409 109.903 7.28859 109.646 7.08736C109.388 6.88613 109.094 6.7352 108.764 6.63459C108.438 6.52995 108.086 6.47763 107.708 6.47763C107.036 6.47763 106.44 6.64666 105.921 6.98473C105.402 7.31877 104.995 7.80978 104.702 8.45774C104.408 9.10168 104.261 9.88849 104.261 10.8182C104.261 11.764 104.408 12.5608 104.702 13.2088C104.999 13.8527 105.406 14.3397 105.921 14.6697C106.44 14.9957 107.034 15.1587 107.702 15.1587C108.072 15.1587 108.418 15.1104 108.74 15.0138C109.066 14.9132 109.358 14.7663 109.616 14.5732C109.877 14.38 110.097 14.1425 110.274 13.8608C110.455 13.5791 110.579 13.2571 110.648 12.8949L112.906 12.907C112.821 13.4946 112.638 14.0459 112.356 14.5611C112.079 15.0762 111.714 15.531 111.264 15.9254C110.813 16.3158 110.286 16.6217 109.682 16.843C109.078 17.0604 108.408 17.169 107.672 17.169C106.585 17.169 105.615 16.9175 104.762 16.4144C103.909 15.9113 103.237 15.1849 102.746 14.2351C102.255 13.2853 102.009 12.1463 102.009 10.8182C102.009 9.48603 102.257 8.34706 102.752 7.40128C103.247 6.45147 103.921 5.72502 104.774 5.22195C105.627 4.71887 106.593 4.46733 107.672 4.46733C108.36 4.46733 109 4.56392 109.591 4.7571C110.183 4.95028 110.71 5.23402 111.173 5.60831C111.636 5.97857 112.016 6.43336 112.314 6.97266C112.616 7.50793 112.813 8.11967 112.906 8.80788ZM114.413 6.51385V4.63636H124.278V6.51385H120.456V17H118.235V6.51385H114.413ZM79.8022 29.8079H77.5444C77.48 29.4376 77.3613 29.1096 77.1882 28.8239C77.0152 28.5341 76.7998 28.2886 76.5423 28.0874C76.2847 27.8861 75.9909 27.7352 75.6609 27.6346C75.3349 27.5299 74.9827 27.4776 74.6044 27.4776C73.9323 27.4776 73.3366 27.6467 72.8175 27.9847C72.2983 28.3188 71.8918 28.8098 71.598 29.4577C71.3042 30.1017 71.1573 30.8885 71.1573 31.8182C71.1573 32.764 71.3042 33.5608 71.598 34.2088C71.8958 34.8527 72.3023 35.3397 72.8175 35.6697C73.3366 35.9957 73.9303 36.1587 74.5984 36.1587C74.9686 36.1587 75.3147 36.1104 75.6367 36.0138C75.9627 35.9132 76.2545 35.7663 76.5121 35.5732C76.7737 35.38 76.993 35.1425 77.1701 34.8608C77.3512 34.5791 77.476 34.2571 77.5444 33.8949L79.8022 33.907C79.7177 34.4946 79.5346 35.0459 79.2528 35.5611C78.9751 36.0762 78.6109 36.531 78.1602 36.9254C77.7094 37.3158 77.1822 37.6217 76.5785 37.843C75.9748 38.0604 75.3047 38.169 74.5682 38.169C73.4815 38.169 72.5116 37.9175 71.6584 37.4144C70.8052 36.9113 70.133 36.1849 69.642 35.2351C69.151 34.2853 68.9055 33.1463 68.9055 31.8182C68.9055 30.486 69.1531 29.3471 69.6481 28.4013C70.1431 27.4515 70.8172 26.725 71.6705 26.2219C72.5237 25.7189 73.4896 25.4673 74.5682 25.4673C75.2564 25.4673 75.8963 25.5639 76.4879 25.7571C77.0795 25.9503 77.6068 26.234 78.0696 26.6083C78.5324 26.9786 78.9128 27.4334 79.2106 27.9727C79.5124 28.5079 79.7096 29.1197 79.8022 29.8079ZM92.9008 31.8182C92.9008 33.1503 92.6513 34.2913 92.1523 35.2411C91.6572 36.1869 90.9811 36.9113 90.1238 37.4144C89.2706 37.9175 88.3027 38.169 87.2201 38.169C86.1375 38.169 85.1675 37.9175 84.3103 37.4144C83.4571 36.9073 82.7809 36.1809 82.2819 35.2351C81.7868 34.2853 81.5393 33.1463 81.5393 31.8182C81.5393 30.486 81.7868 29.3471 82.2819 28.4013C82.7809 27.4515 83.4571 26.725 84.3103 26.2219C85.1675 25.7189 86.1375 25.4673 87.2201 25.4673C88.3027 25.4673 89.2706 25.7189 90.1238 26.2219C90.9811 26.725 91.6572 27.4515 92.1523 28.4013C92.6513 29.3471 92.9008 30.486 92.9008 31.8182ZM90.6491 31.8182C90.6491 30.8804 90.5022 30.0896 90.2084 29.4457C89.9186 28.7977 89.5161 28.3087 89.001 27.9787C88.4858 27.6446 87.8922 27.4776 87.2201 27.4776C86.548 27.4776 85.9543 27.6446 85.4392 27.9787C84.924 28.3087 84.5196 28.7977 84.2258 29.4457C83.936 30.0896 83.7911 30.8804 83.7911 31.8182C83.7911 32.7559 83.936 33.5488 84.2258 34.1967C84.5196 34.8407 84.924 35.3297 85.4392 35.6637C85.9543 35.9937 86.548 36.1587 87.2201 36.1587C87.8922 36.1587 88.4858 35.9937 89.001 35.6637C89.5161 35.3297 89.9186 34.8407 90.2084 34.1967C90.5022 33.5488 90.6491 32.7559 90.6491 31.8182ZM95.0183 25.6364H97.7591L101.43 34.5952H101.574L105.245 25.6364H107.986V38H105.836V29.506H105.722L102.305 37.9638H100.699L97.2821 29.4879H97.1674V38H95.0183V25.6364ZM110.425 25.6364H113.165L116.836 34.5952H116.981L120.651 25.6364H123.392V38H121.243V29.506H121.128L117.711 37.9638H116.105L112.688 29.4879H112.574V38H110.425V25.6364ZM125.831 38V25.6364H133.872V27.5138H128.07V30.8704H133.455V32.7479H128.07V36.1225H133.92V38H125.831ZM136.157 38V25.6364H140.793C141.743 25.6364 142.54 25.8014 143.184 26.1314C143.832 26.4614 144.321 26.9242 144.651 27.5199C144.985 28.1115 145.152 28.8017 145.152 29.5906C145.152 30.3834 144.983 31.0716 144.645 31.6552C144.311 32.2347 143.818 32.6835 143.166 33.0014C142.514 33.3153 141.713 33.4723 140.763 33.4723H137.461V31.6129H140.461C141.017 31.6129 141.471 31.5365 141.826 31.3835C142.18 31.2266 142.441 30.9992 142.61 30.7013C142.783 30.3995 142.87 30.0292 142.87 29.5906C142.87 29.1519 142.783 28.7776 142.61 28.4677C142.437 28.1538 142.174 27.9163 141.82 27.7553C141.465 27.5903 141.009 27.5078 140.449 27.5078H138.397V38H136.157ZM142.544 32.3977L145.605 38H143.105L140.099 32.3977H142.544ZM157.796 29.8079H155.539C155.474 29.4376 155.355 29.1096 155.182 28.8239C155.009 28.5341 154.794 28.2886 154.536 28.0874C154.279 27.8861 153.985 27.7352 153.655 27.6346C153.329 27.5299 152.977 27.4776 152.599 27.4776C151.926 27.4776 151.331 27.6467 150.812 27.9847C150.292 28.3188 149.886 28.8098 149.592 29.4577C149.298 30.1017 149.151 30.8885 149.151 31.8182C149.151 32.764 149.298 33.5608 149.592 34.2088C149.89 34.8527 150.296 35.3397 150.812 35.6697C151.331 35.9957 151.924 36.1587 152.593 36.1587C152.963 36.1587 153.309 36.1104 153.631 36.0138C153.957 35.9132 154.249 35.7663 154.506 35.5732C154.768 35.38 154.987 35.1425 155.164 34.8608C155.345 34.5791 155.47 34.2571 155.539 33.8949L157.796 33.907C157.712 34.4946 157.529 35.0459 157.247 35.5611C156.969 36.0762 156.605 36.531 156.154 36.9254C155.704 37.3158 155.176 37.6217 154.573 37.843C153.969 38.0604 153.299 38.169 152.562 38.169C151.476 38.169 150.506 37.9175 149.653 37.4144C148.799 36.9113 148.127 36.1849 147.636 35.2351C147.145 34.2853 146.9 33.1463 146.9 31.8182C146.9 30.486 147.147 29.3471 147.642 28.4013C148.137 27.4515 148.811 26.725 149.665 26.2219C150.518 25.7189 151.484 25.4673 152.562 25.4673C153.251 25.4673 153.89 25.5639 154.482 25.7571C155.074 25.9503 155.601 26.234 156.064 26.6083C156.527 26.9786 156.907 27.4334 157.205 27.9727C157.507 28.5079 157.704 29.1197 157.796 29.8079ZM159.847 38V25.6364H167.889V27.5138H162.087V30.8704H167.472V32.7479H162.087V36.1225H167.937V38H159.847Z" fill="#413F42"/>
<rect y="4" width="7.91016" height="34.2773" fill="#5F9DF7"/>
<rect x="26.3672" y="4" width="7.91016" height="23.7305" transform="rotate(90 26.3672 4)" fill="#5F9DF7"/>
<rect x="31.6406" y="4" width="7.91016" height="34.2773" fill="#EB455F"/>
<rect x="34.2773" y="17.1836" width="7.91016" height="21.0938" transform="rotate(90 34.2773 17.1836)" fill="#EB455F"/>
<rect x="21.0938" y="38.2773" width="7.91016" height="21.0938" transform="rotate(-180 21.0938 38.2773)" fill="#EB455F"/>
<rect x="34.2773" y="30.3672" width="7.91016" height="21.0938" transform="rotate(90 34.2773 30.3672)" fill="#EB455F"/>
<rect x="60.6445" y="17.1836" width="7.91016" height="21.0938" transform="rotate(90 60.6445 17.1836)" fill="#EB455F"/>
<rect x="54.0527" y="31.6855" width="7.91016" height="21.0938" transform="rotate(-180 54.0527 31.6855)" fill="#EB455F"/>
</svg>
